<?xml version="1.0" encoding="UTF-8" standalone="no"?>
<!-- Created with Inkscape (http://www.inkscape.org/) -->

<svg
   xmlns:dc="http://purl.org/dc/elements/1.1/"
   xmlns:cc="http://creativecommons.org/ns#"
   xmlns:rdf="http://www.w3.org/1999/02/22-rdf-syntax-ns#"
   xmlns:svg="http://www.w3.org/2000/svg"
   xmlns="http://www.w3.org/2000/svg"
   version="1.2"
   width="247.49091"
   height="286.67084"
   id="svg2">
  <metadata
     id="metadata42">
    <rdf:RDF>
      <cc:Work
         rdf:about="">
        <dc:format>image/svg+xml</dc:format>
        <dc:type
           rdf:resource="http://purl.org/dc/dcmitype/StillImage" />
        <dc:title></dc:title>
      </cc:Work>
    </rdf:RDF>
  </metadata>
  <defs
     id="defs40" />
  <g
     transform="translate(-0.00908871,0)"
     id="g3">
    <g
       id="Calque_1">
      <g
         id="g6">
        <g
           id="g8">
          <path
             d="m 55.206,239.498 c 0,4.436 -3.596,8.031 -8.031,8.031 -4.435,0 -8.031,-3.596 -8.031,-8.031 0,-4.435 3.596,-8.031 8.031,-8.031 4.435,0 8.031,3.596 8.031,8.031 z"
             id="path10"
             style="fill:none;stroke:#000000;stroke-width:3;stroke-linecap:round;stroke-linejoin:round" />
          <path
             d="m 78.171,239.498 c 0,17.118 -13.877,30.996 -30.996,30.996 -17.119,0 -30.996,-13.878 -30.996,-30.996 0,-17.118 13.877,-30.996 30.996,-30.996 17.119,0 30.996,13.878 30.996,30.996 z"
             id="path12"
             style="fill:#ffffff;stroke:#000000;stroke-width:3;stroke-linecap:round;stroke-linejoin:round" />
          <path
             d="m 53.612,239.498 c 0,3.556 -2.883,6.438 -6.438,6.438 -3.556,0 -6.438,-2.882 -6.438,-6.438 0,-3.556 2.882,-6.438 6.438,-6.438 3.555,0.001 6.438,2.882 6.438,6.438 z"
             id="path14"
             style="fill:none;stroke:#000000;stroke-width:3;stroke-linecap:round;stroke-linejoin:round" />
          <path
             d="m 17.419,204.659 10.567,3.526 5.134,-2.616 3.359,-10.621 7.1,-1.125 6.477,9.064 5.691,0.901 8.961,-6.619 6.406,3.264 -0.09,11.14 4.074,4.074 11.14,-0.088 3.265,6.405 -6.62,8.961 0.902,5.691 9.064,6.476 -1.125,7.101 -10.621,3.358 -2.617,5.135 3.527,10.566 -5.085,5.084 -10.566,-3.526 -5.135,2.615 -3.357,10.622 -7.101,1.125 -6.477,-9.064 -5.691,-0.901 -8.96,6.619 -6.406,-3.264 0.09,-11.14 -4.075,-4.075 -11.14,0.089 -3.264,-6.405 6.62,-8.961 -0.902,-5.691 -9.064,-6.476 1.125,-7.101 10.622,-3.358 2.615,-5.135 -3.526,-10.566 5.083,-5.084 z"
             id="path16"
             style="fill:none;stroke:#000000;stroke-width:3;stroke-linecap:round;stroke-linejoin:round" />
        </g>
        <g
           id="g18">
          <path
             d="m 138.091,212.883 c 0,4.437 -3.596,8.032 -8.031,8.032 -4.437,0 -8.032,-3.596 -8.032,-8.032 0,-4.436 3.596,-8.031 8.032,-8.031 4.435,0 8.031,3.595 8.031,8.031 z"
             id="path20"
             style="fill:none;stroke:#000000;stroke-width:3;stroke-linecap:round;stroke-linejoin:round" />
          <path
             d="m 161.056,212.883 c 0,17.119 -13.878,30.996 -30.996,30.996 -17.119,0 -30.997,-13.877 -30.997,-30.996 0,-17.118 13.878,-30.996 30.997,-30.996 17.118,0 30.996,13.878 30.996,30.996 z"
             id="path22"
             style="fill:#ffffff;stroke:#000000;stroke-width:3;stroke-linecap:round;stroke-linejoin:round" />
          <path
             d="m 136.497,212.883 c 0,3.556 -2.882,6.438 -6.438,6.438 -3.556,0 -6.438,-2.882 -6.438,-6.438 0,-3.556 2.882,-6.438 6.438,-6.438 3.556,0 6.438,2.882 6.438,6.438 z"
             id="path24"
             style="fill:none;stroke:#000000;stroke-width:3;stroke-linecap:round;stroke-linejoin:round" />
          <path
             d="m 100.305,178.044 10.566,3.527 5.134,-2.616 3.358,-10.622 7.102,-1.125 6.476,9.064 5.692,0.902 8.959,-6.62 6.406,3.264 -0.089,11.141 4.074,4.073 11.14,-0.088 3.265,6.405 -6.62,8.961 0.901,5.691 9.064,6.476 -1.124,7.102 -10.622,3.357 -2.616,5.135 3.526,10.566 -5.084,5.084 -10.566,-3.526 -5.135,2.616 -3.357,10.621 -7.101,1.125 -6.477,-9.063 -5.691,-0.902 -8.96,6.62 -6.406,-3.264 0.089,-11.141 -4.074,-4.074 -11.141,0.088 -3.264,-6.405 6.62,-8.96 -0.901,-5.691 -9.064,-6.477 1.125,-7.101 10.621,-3.357 2.616,-5.135 -3.526,-10.567 5.084,-5.084 z"
             id="path26"
             style="fill:none;stroke:#000000;stroke-width:3;stroke-linecap:round;stroke-linejoin:round" />
        </g>
        <g
           id="g28">
          <g
             id="g30">
            <path
               d="m 218.86,90.66 c 0,34.257 -27.771,62.029 -62.029,62.029 -34.258,0 -62.03,-27.772 -62.03,-62.029 0,-34.258 27.771,-62.03 62.03,-62.03 34.259,0 62.029,27.772 62.029,62.03 z"
               id="path32"
               style="fill:#ffffff;stroke:#000000;stroke-width:3;stroke-linecap:round;stroke-linejoin:round" />
            <path
               d="m 169.714,90.66 c 0,7.115 -5.768,12.883 -12.883,12.883 -7.116,0 -12.883,-5.768 -12.883,-12.883 0,-7.116 5.767,-12.884 12.883,-12.884 7.115,0 12.883,5.768 12.883,12.884 z"
               id="path34"
               style="fill:none;stroke:#000000;stroke-width:3;stroke-linecap:round;stroke-linejoin:round" />
          </g>
          <path
             d="m 153.786,168.139 -6.069,-0.478 -8.279,10.444 -6.808,-1.635 -2.637,-13.065 -5.624,-2.328 -11.103,7.373 -5.97,-3.657 1.531,-13.239 -4.631,-3.955 -12.838,3.583 -4.547,-5.324 5.547,-12.119 -3.181,-5.191 -13.316,-0.561 -2.68,-6.467 9.021,-9.813 -1.421,-5.92 -12.491,-4.647 -0.549,-6.979 11.61,-6.544 0.479,-6.07 -10.445,-8.28 1.634,-6.807 13.065,-2.637 2.331,-5.624 -7.374,-11.103 3.657,-5.97 13.239,1.53 3.954,-4.63 -3.581,-12.839 5.323,-4.546 12.119,5.547 5.191,-3.181 0.56,-13.316 6.468,-2.679 9.813,9.021 5.92,-1.423 4.646,-12.491 6.979,-0.549 6.546,11.61 6.068,0.478 8.28,-10.444 6.808,1.636 2.636,13.064 5.625,2.33 11.103,-7.374 5.97,3.657 -1.53,13.239 4.629,3.954 12.839,-3.583 4.547,5.325 -5.547,12.118 3.181,5.191 13.316,0.561 2.68,6.467 -9.021,9.813 1.422,5.919 12.492,4.647 0.549,6.979 -11.61,6.545 -0.479,6.069 10.444,8.28 -1.634,6.807 -13.065,2.637 -2.33,5.625 7.375,11.103 -3.658,5.97 -13.239,-1.53 -3.955,4.63 3.582,12.837 -5.323,4.548 -12.119,-5.547 -5.191,3.18 -0.56,13.317 -6.468,2.678 -9.813,-9.02 -5.92,1.422 -4.647,12.492 -6.979,0.549 -6.547,-11.61 z"
             id="path36"
             style="fill:none;stroke:#000000;stroke-width:3" />
        </g>
      </g>
    </g>
  </g>
</svg>
